# xmcd
# 
# Track frame offsets:
#     150
#     18719
#     36478
#     54234
#     70128
#     89974
#     112349
#     124950
#     142760
#     159979
#     177246
#     195382
# 
# Disc length: 2812
# 
# Revision: 1
# Processed by: cddbd v1.5.2PL0 Copyright (c) Steve Scherf et al.
# Submitted via: BonkEnc v1.0.6
# 
DISCID=ad0afa0c
DTITLE=Fagner - Fortaleza
DYEAR=0
DGENRE=
TTITLE0=Rancho das Flores
TTITLE1=Amor e Utopia
TTITLE2=Preciso de Alguém
TTITLE3=Fortaleza
TTITLE4=Difícil Acreditar
TTITLE5=No Tempo dos Quintais
TTITLE6=Colando a Boca no teu Rosto
TTITLE7=Maria Luiza
TTITLE8=Esquina do Brasil
TTITLE9=Maria do Futuro
TTITLE10=Fácil de Entender
TTITLE11=Toque, Sanfoneiro, Toque
EXTD=
EXTT0=
EXTT1=
EXTT2=
EXTT3=
EXTT4=
EXTT5=
EXTT6=
EXTT7=
EXTT8=
EXTT9=
EXTT10=
EXTT11=
PLAYORDER=
